<?xml version="1.0" encoding="UTF-8"?>
<svg width="84px" height="85px" viewBox="0 0 84 85" version="1.1" xmlns="http://www.w3.org/2000/svg" xmlns:xlink="http://www.w3.org/1999/xlink">
    <!-- Generator: Sketch 41.2 (35397) - http://www.bohemiancoding.com/sketch -->
    <title>Page 1</title>
    <desc>Created with Sketch.</desc>
    <defs>
        <polygon id="path-1" points="0 85 83.718 85 83.718 0.282 0 0.282"></polygon>
    </defs>
    <g id="Page-1" stroke="none" stroke-width="1" fill="none" fill-rule="evenodd">
        <g id="Group" transform="translate(0.000000, -226.000000)">
            <g id="Page-1" transform="translate(0.000000, 225.000000)">
                <g id="Group-3" transform="translate(0.000000, 0.717900)">
                    <mask id="mask-2" fill="white">
                        <use xlink:href="#path-1"></use>
                    </mask>
                    <g id="Clip-2"></g>
                    <path d="M83.718,44.641 C83.718,56.89 78.753,67.98 70.726,76.008 C62.698,84.035 51.608,85 39.359,85 C27.11,85 16.02,84.035 7.992,76.008 C-0.035,67.98 2.75335312e-14,56.89 2.75335312e-14,44.641 C2.75335312e-14,32.392 3.965,21.302 11.992,13.274 C20.02,5.247 27.11,0.282 39.359,0.282 C51.608,0.282 60.698,5.247 68.726,13.274 C76.753,21.302 83.718,32.392 83.718,44.641" id="Fill-1" fill="#E3FF24" mask="url(#mask-2)"></path>
                </g>
                <path d="M13.4785,55.1311 C13.5925,54.6661 13.6805,54.1931 13.8275,53.7391 C13.9695,53.3031 14.1735,52.8881 14.3485,52.4631 C14.4915,52.1141 14.6015,51.7481 14.7805,51.4191 C15.0415,50.9391 15.3575,50.4891 15.6395,50.0201 C15.8895,49.6061 16.1425,49.1921 16.3625,48.7631 C16.9175,47.6811 17.8685,46.9831 18.7685,46.2351 C19.2165,45.8611 19.6635,45.4781 20.1515,45.1611 C20.7195,44.7911 21.3185,44.4611 21.9295,44.1651 C22.4175,43.9291 22.9405,43.7661 23.4525,43.5801 C23.8285,43.4431 24.0565,43.7011 24.2435,43.9481 C24.7335,44.5921 25.1825,45.2661 25.6785,45.9061 C25.8915,46.1821 26.2265,46.3691 26.4215,46.6541 C26.7665,47.1611 26.8685,47.7741 26.8205,48.3641 C26.7575,49.1271 25.8785,49.3641 25.1065,49.1271 C24.7665,49.0221 24.4075,48.8721 24.0675,48.8951 C23.6815,48.9221 23.2625,49.0501 22.9375,49.2581 C22.2765,49.6811 21.6265,50.1401 21.0485,50.6671 C19.8015,51.8031 18.7695,53.1301 17.9965,54.6271 C17.6655,55.2671 17.5125,56.0011 17.2995,56.6991 C17.2795,56.7661 17.3905,56.9391 17.4675,56.9581 C17.6885,57.0131 17.9335,57.0661 18.1515,57.0261 C18.6975,56.9261 19.2125,56.7491 19.7325,56.5111 C20.8885,55.9801 21.8585,55.1791 22.9275,54.5251 C23.2225,54.3441 23.5195,54.1351 23.7445,53.8771 C23.9095,53.6871 23.9435,53.3871 24.0695,53.1551 C24.1385,53.0261 24.2715,52.9281 24.3855,52.8281 C24.4695,52.7551 24.5995,52.7201 24.6575,52.6341 C24.8025,52.4181 24.9445,52.2461 25.2125,52.4261 C25.2475,52.3941 25.2685,52.3821 25.2805,52.3631 C25.3525,52.2481 25.4225,52.1321 25.4925,52.0161 C25.6835,52.1461 25.9005,52.2501 26.0575,52.4131 C26.2675,52.6311 26.4105,52.9141 26.6205,53.1321 C26.9325,53.4551 26.9595,53.5431 26.7085,53.9031 C26.8715,54.0251 26.8925,54.4611 26.7465,54.6821 C26.4825,55.0831 26.5275,55.3111 26.9265,55.4741 C26.9435,55.3811 26.9585,55.2941 26.9765,55.1971 C27.2035,55.3491 27.2215,55.4481 27.0395,55.6021 C26.6395,55.9411 26.2185,56.2561 25.8285,56.6071 C25.6105,56.8041 25.4385,57.0521 25.2865,57.3331 C25.3555,57.3021 25.4245,57.2711 25.4945,57.2401 C25.5085,57.2581 25.5235,57.2761 25.5385,57.2941 C25.4195,57.3941 25.3005,57.4931 25.1815,57.5931 C25.2015,57.6261 25.2225,57.6581 25.2425,57.6911 C25.6955,57.3931 26.1485,57.0961 26.6005,56.7981 C25.7185,57.7911 24.6135,58.4641 23.5215,59.1741 C22.8305,59.6231 22.1305,60.0381 21.3895,60.3761 C20.6255,60.7251 19.8445,61.0761 19.0345,61.2661 C18.2645,61.4461 17.4605,61.3211 16.7545,60.8891 C15.9165,60.3771 15.1115,59.8171 14.3735,59.1671 C13.9315,58.7791 13.8645,58.2101 13.6905,57.6951 C13.6025,57.4331 13.5485,57.1601 13.4785,56.8921 L13.4785,55.1311 Z" id="Fill-4" fill="#262626"></path>
                <path d="M60.6959,42.8017 C61.1089,43.0547 61.4909,43.3547 62.0439,43.2247 C62.4319,43.1327 62.6209,43.5257 62.8739,43.7227 C63.1369,43.9277 63.3529,44.2017 63.5619,44.4657 C63.8479,44.8267 63.9019,45.2597 63.7759,45.6817 C63.5549,46.4217 63.2569,47.1387 63.0469,47.8817 C62.6029,49.4467 62.1939,51.0227 61.7489,52.6797 C61.9979,52.6667 62.1969,52.6907 62.3769,52.6417 C62.8499,52.5117 63.3179,52.3627 63.7809,52.1997 C64.3279,52.0067 64.8739,51.8057 65.4079,51.5797 C65.9589,51.3467 66.4809,51.0407 67.0409,50.8367 C67.6329,50.6207 68.2509,50.4777 68.8629,50.3237 C69.2089,50.2367 69.5629,50.1807 69.9169,50.1347 C70.0189,50.1227 70.1319,50.1967 70.2399,50.2317 C70.1969,50.3557 70.1869,50.5107 70.1049,50.5977 C69.7639,50.9577 69.5989,51.3877 69.5169,51.8647 C69.4999,51.9607 69.4349,52.0627 69.3639,52.1327 C68.9179,52.5757 68.4639,53.0117 67.9999,53.4607 C68.0849,53.4947 68.1399,53.5167 68.2109,53.5447 C68.0039,53.6997 67.6679,53.7207 67.7429,54.1037 C67.8239,54.0947 67.9059,54.0857 68.0769,54.0657 C67.9089,54.1887 67.8209,54.2797 67.7139,54.3257 C67.1359,54.5737 66.5479,54.7987 65.9759,55.0597 C65.8279,55.1277 65.7259,55.2987 65.6019,55.4207 C65.4929,55.5287 65.3979,55.6607 65.2699,55.7387 C64.6859,56.0937 64.0789,56.4107 63.5069,56.7837 C62.7549,57.2757 62.0019,57.7737 61.2989,58.3307 C60.7039,58.8017 60.1559,59.3387 59.6349,59.8927 C59.4249,60.1167 59.3439,60.4627 59.2039,60.7527 C59.0509,61.0677 58.8959,61.3827 58.7419,61.6977 C58.7119,61.6847 58.6819,61.6707 58.6519,61.6577 C58.6739,61.5507 58.6949,61.4427 58.7089,61.3747 C58.5379,61.2357 58.3819,61.1097 58.2249,60.9837 C57.6899,61.5177 57.5499,61.5597 57.3339,61.2527 C57.2069,61.4287 57.0769,61.6087 56.9809,61.7427 C56.8109,61.5787 56.6759,61.4487 56.5039,61.2827 C56.3719,61.5937 56.2799,61.7607 55.9409,61.5917 C55.6639,61.4527 55.3079,61.4637 54.9839,61.4317 C54.6239,61.3967 54.3949,61.0977 54.3659,60.7467 C54.3179,60.1797 54.5049,59.6947 54.7479,59.2087 C54.9629,58.7797 55.0739,58.2687 55.3759,57.9197 C55.8879,57.3297 55.9589,56.6097 56.1659,55.9257 C56.4829,54.8757 56.8059,53.8277 57.0929,52.7707 C57.4009,51.6377 57.6889,50.4977 57.9489,49.3537 C58.1889,48.2957 58.3839,47.2287 58.5929,46.1637 C58.7059,45.5917 58.7779,45.0097 58.9199,44.4447 C59.0779,43.8207 59.4449,43.3107 59.9879,42.9627 C60.1639,42.8507 60.4129,42.8517 60.6279,42.8017 L60.6959,42.8017 Z" id="Fill-6" fill="#262626"></path>
                <path d="M37.9655,50.9774 C38.0075,50.9754 38.0495,50.9724 38.0915,50.9704 C38.0735,50.6674 38.0555,50.3654 38.0375,50.0634 C37.9965,50.0654 37.9555,50.0674 37.9145,50.0704 C37.9315,50.3724 37.9485,50.6754 37.9655,50.9774 M37.7815,49.4734 C37.9585,49.4734 38.0955,49.4904 38.2215,49.4614 C38.2555,49.4544 38.2775,49.3044 38.2695,49.2234 C38.2525,49.0654 38.2175,48.9074 38.1745,48.7534 C38.1615,48.7044 38.0995,48.6684 38.0495,48.6154 C37.9615,48.8964 37.8835,49.1454 37.7815,49.4734 M36.3725,59.9944 C36.3935,60.0374 36.4155,60.0804 36.4375,60.1224 C36.6505,60.0384 36.8635,59.9554 37.0765,59.8694 C37.0765,59.8694 37.0655,59.8394 37.0595,59.8234 C36.9965,59.8504 36.9355,59.8764 36.8725,59.9044 C36.9975,59.7304 37.0875,59.5504 37.2265,59.4244 C37.4965,59.1804 37.8195,58.9934 38.0735,58.7364 C38.6885,58.1134 39.2285,57.4364 39.5805,56.6144 C39.8655,55.9474 40.2215,55.3104 40.5345,54.6554 C40.5815,54.5564 40.5655,54.4264 40.5905,54.2134 C40.7515,54.0294 41.2795,52.3194 41.1625,51.4654 C41.1215,51.6114 41.1095,51.7624 41.0755,51.9094 C41.0115,52.1874 41.0425,52.4674 40.8855,52.7494 C40.6725,53.1294 40.5745,53.5764 40.4415,53.9984 C40.2965,54.4624 40.1715,54.9334 40.0305,55.3984 C40.0165,55.4454 39.9455,55.4714 39.9145,55.5164 C39.5285,56.0704 39.1395,56.6204 38.7645,57.1804 C38.4675,57.6234 38.2015,58.0864 37.8935,58.5214 C37.8055,58.6464 37.5975,58.6804 37.4895,58.7984 C37.2495,59.0574 37.0475,59.3524 36.8125,59.6164 C36.6845,59.7594 36.5205,59.8694 36.3725,59.9944 M36.4825,47.4024 C36.4795,47.4044 36.3965,47.4414 36.3395,47.5034 C35.9365,47.9384 35.5605,48.3994 35.1355,48.8114 C34.4195,49.5034 34.0355,50.4064 33.6335,51.2694 C32.9795,52.6764 32.5145,54.1594 32.3345,55.7184 C32.2515,56.4364 32.1465,57.1484 32.5325,57.8384 C32.8615,57.7664 33.1955,57.6854 33.5335,57.6254 C33.6905,57.5974 33.8965,57.6704 34.0065,57.5924 C34.2785,57.4004 34.5155,57.1564 34.7505,56.9174 C34.9335,56.7304 35.1545,56.5454 35.2515,56.3154 C35.4455,55.8534 35.7695,55.5244 36.1375,55.2164 C36.2305,55.1384 36.3345,55.0434 36.3715,54.9354 C36.6085,54.2444 36.8275,53.5484 37.0535,52.8534 C37.0965,52.7234 37.1685,52.5964 37.1785,52.4654 C37.2065,52.0984 37.2065,51.7294 37.2235,51.3614 C37.2265,51.2964 37.2375,51.1954 37.2775,51.1754 C37.6245,51.0044 37.5055,50.7164 37.4785,50.4484 C37.4675,50.3374 37.4485,50.2184 37.4775,50.1154 C37.6905,49.3654 37.3415,48.7184 37.1065,48.0524 C37.0905,48.0054 37.0285,47.9744 36.9905,47.9344 C36.8285,47.7654 36.6675,47.5964 36.4825,47.4024 M37.9895,44.2864 C38.4825,44.3324 38.7895,44.7724 39.1935,45.0574 C39.3825,45.1904 39.5775,45.3144 39.7555,45.4594 C39.9025,45.5784 40.0815,45.6964 40.1575,45.8574 C40.4225,46.4204 40.6865,46.9914 40.8725,47.5834 C40.9435,47.8094 40.9275,47.9854 41.2245,47.9594 C41.2565,47.9564 41.3215,48.0704 41.3315,48.1364 C41.3605,48.3364 41.3695,48.5404 41.3875,48.7424 C41.4235,49.1424 41.4855,49.5414 41.4905,49.9414 C41.4955,50.3384 41.4445,50.7354 41.4155,51.1324 C41.4095,51.2184 41.3915,51.3034 41.4235,51.3974 C41.7485,50.4164 42.1485,49.4534 41.9825,48.3714 C42.0275,48.3744 42.0715,48.3774 42.1165,48.3804 C42.1165,48.7064 42.1345,49.0344 42.1125,49.3594 C42.0605,50.1214 42.0615,50.8974 41.9065,51.6384 C41.7035,52.6084 41.4035,53.5624 41.0845,54.5024 C40.8665,55.1434 40.5965,55.7784 40.2575,56.3614 C39.8085,57.1334 39.2555,57.8454 38.7705,58.5974 C38.3765,59.2074 37.8405,59.6704 37.2405,60.0374 C36.5435,60.4634 35.8085,60.8354 35.0595,61.1624 C34.8095,61.2724 34.4505,61.2344 34.1715,61.1574 C33.6325,61.0084 33.1165,60.7774 32.5865,60.5934 C32.4205,60.5354 32.2355,60.5354 32.0665,60.4834 C31.4825,60.3024 30.9005,60.1144 30.3225,59.9154 C30.2555,59.8934 30.2155,59.7914 30.1635,59.7254 C30.0965,59.6394 30.0445,59.5344 29.9615,59.4704 C29.7205,59.2864 29.6395,59.3264 29.5775,59.6884 C29.0975,59.2434 28.5585,58.9604 28.3285,58.2544 C28.1085,57.5774 27.8885,56.9044 27.7775,56.2054 C27.7295,55.9014 27.8105,55.5754 27.8465,55.2614 C27.8705,55.0514 27.9435,54.8464 27.9525,54.6374 C27.9955,53.6084 28.1205,52.5984 28.5285,51.6414 C28.5685,51.5484 28.5995,51.4504 28.6215,51.3524 C28.8535,50.2804 29.3665,49.3344 29.9165,48.4004 C30.3155,47.7224 30.6865,47.0284 31.0445,46.3284 C31.1885,46.0484 31.2655,45.7344 31.3635,45.4614 C31.6785,45.2504 32.0805,45.1614 31.9925,44.6404 C31.9555,44.4224 32.4385,44.0744 32.6705,44.0414 C32.8605,44.0154 33.0415,43.9224 33.2245,43.8554 C33.3485,43.8094 33.4725,43.7624 33.5905,43.7034 C33.7305,43.6334 33.8645,43.5514 34.0395,43.4524 C34.6835,43.5684 35.3965,43.6844 36.1045,43.8304 C36.2725,43.8644 36.4155,44.0054 36.5785,44.0794 C36.9255,44.2364 37.2715,44.3964 37.6315,44.5164 C37.7035,44.5404 37.8325,44.3924 37.9895,44.2864" id="Fill-8" fill="#262626"></path>
                <path d="M51.929,50.0367 C51.727,50.3407 51.746,50.6817 51.979,50.9947 C51.962,50.6677 51.946,50.3657 51.929,50.0367 M51.692,49.4047 C52.009,49.5777 52.188,49.5377 52.164,49.3017 C52.143,49.0987 52.088,48.8977 52.037,48.6997 C52.029,48.6677 51.958,48.6507 51.928,48.6337 C51.844,48.9077 51.767,49.1577 51.692,49.4047 M50.267,60.0107 L50.307,60.0937 C50.494,60.0497 50.682,60.0127 50.866,59.9587 C50.911,59.9467 50.979,59.8537 50.974,59.8487 C50.815,59.6507 51.052,59.5057 51.108,59.4487 C51.365,59.1817 51.7,58.9907 51.967,58.7307 C52.655,58.0627 53.192,57.2847 53.587,56.4057 C53.857,55.8047 54.165,55.2207 54.441,54.6227 C54.483,54.5327 54.447,54.4077 54.447,54.2467 C54.639,54.0327 55.162,52.3347 55.051,51.4647 C55.009,51.6097 54.995,51.7607 54.963,51.9067 C54.901,52.1847 54.842,52.4647 54.757,52.7367 C54.625,53.1597 54.462,53.5727 54.33,53.9957 C54.184,54.4587 54.061,54.9297 53.921,55.3947 C53.907,55.4417 53.836,55.4687 53.805,55.5137 C53.419,56.0667 53.029,56.6157 52.653,57.1747 C52.35,57.6257 52.077,58.0977 51.764,58.5417 C51.676,58.6657 51.476,58.7057 51.364,58.8207 C51.053,59.1377 50.76,59.4737 50.46,59.8027 C50.396,59.8727 50.331,59.9407 50.267,60.0107 M50.372,47.4007 C50.374,47.3987 50.298,47.4297 50.247,47.4837 C49.844,47.9187 49.469,48.3817 49.042,48.7897 C48.32,49.4787 47.937,50.3827 47.533,51.2457 C46.866,52.6707 46.389,54.1757 46.217,55.7577 C46.149,56.3837 46.04,57.0047 46.311,57.6227 C46.397,57.8167 46.459,57.8607 46.649,57.8047 C46.904,57.7297 47.164,57.6667 47.427,57.6227 C47.574,57.5977 47.774,57.6807 47.872,57.6087 C48.158,57.3977 48.412,57.1417 48.664,56.8877 C48.84,56.7107 49.052,56.5337 49.14,56.3127 C49.329,55.8467 49.66,55.5227 50.029,55.2147 C50.113,55.1437 50.211,55.0597 50.245,54.9617 C50.486,54.2717 50.712,53.5767 50.942,52.8827 C50.988,52.7437 51.056,52.6037 51.066,52.4607 C51.093,52.1057 51.089,51.7477 51.105,51.3907 C51.108,51.3157 51.123,51.1977 51.17,51.1737 C51.498,51.0097 51.391,50.7337 51.373,50.4757 C51.365,50.3547 51.336,50.2237 51.367,50.1107 C51.577,49.3597 51.227,48.7147 50.992,48.0477 C50.976,48.0007 50.912,47.9717 50.874,47.9317 C50.712,47.7617 50.552,47.5917 50.372,47.4007 M45.304,45.4237 C45.561,45.2507 45.97,45.1667 45.877,44.6447 C45.84,44.4307 46.323,44.0737 46.552,44.0407 C46.742,44.0147 46.923,43.9247 47.107,43.8577 C47.209,43.8197 47.31,43.7757 47.408,43.7267 C47.578,43.6417 47.744,43.5507 47.948,43.4437 C48.541,43.5607 49.197,43.6837 49.851,43.8207 C50.01,43.8547 50.163,43.9267 50.314,43.9927 C50.713,44.1677 51.105,44.3627 51.514,44.5117 C51.586,44.5377 51.726,44.3797 51.865,44.2867 C52.368,44.3187 52.667,44.7727 53.075,45.0507 C53.275,45.1867 53.475,45.3217 53.668,45.4657 C53.785,45.5537 53.925,45.6387 53.995,45.7597 C54.364,46.3977 54.556,47.1057 54.78,47.8017 C54.8,47.8627 54.908,47.9417 54.968,47.9367 C55.173,47.9207 55.224,48.0207 55.231,48.1947 C55.244,48.5667 55.26,48.9377 55.283,49.3087 C55.292,49.4627 55.322,49.6157 55.339,49.7707 C55.356,49.9257 55.39,50.0827 55.379,50.2367 C55.353,50.6197 55.305,51.0017 55.312,51.3917 C55.617,50.4217 56.04,49.4777 55.871,48.4097 C55.904,48.4087 55.938,48.4077 55.971,48.4067 C55.983,48.5137 56.008,48.6207 56.005,48.7267 C55.964,49.9487 55.978,51.1757 55.623,52.3677 C55.463,52.9027 55.38,53.4617 55.199,53.9887 C55.008,54.5467 54.775,55.0967 54.501,55.6187 C54.08,56.4207 53.639,57.2167 53.149,57.9787 C52.493,58.9987 51.639,59.8317 50.551,60.3957 C50.024,60.6697 49.499,60.9597 48.945,61.1637 C48.682,61.2607 48.334,61.2337 48.055,61.1567 C47.516,61.0067 47.001,60.7757 46.471,60.5917 C46.316,60.5377 46.141,60.5427 45.984,60.4937 C45.4,60.3127 44.818,60.1257 44.239,59.9267 C44.162,59.9007 44.111,59.7947 44.052,59.7227 C43.982,59.6387 43.931,59.5327 43.847,59.4697 C43.604,59.2857 43.526,59.3257 43.465,59.6887 C42.986,59.2427 42.447,58.9607 42.216,58.2557 C41.997,57.5887 41.784,56.9257 41.669,56.2387 C41.617,55.9247 41.699,55.5867 41.735,55.2607 C41.756,55.0737 41.836,54.8907 41.839,54.7047 C41.855,53.5447 42.162,52.4537 42.485,51.3457 C42.866,50.0357 43.537,48.8947 44.196,47.7307 C44.508,47.1797 44.738,46.5817 45.008,46.0067 C45.096,45.8197 45.195,45.6387 45.304,45.4237" id="Fill-10" fill="#262626"></path>
                <path d="M55.2984,47.2328 C55.6254,47.7088 55.5234,48.1668 55.3984,48.6288 C55.3674,48.1928 55.3364,47.7568 55.2984,47.2328" id="Fill-12" fill="#262626"></path>
                <path d="M41.4126,47.2391 C41.7426,47.7081 41.6316,48.1671 41.5116,48.6281 C41.4806,48.1931 41.4496,47.7571 41.4126,47.2391" id="Fill-14" fill="#262626"></path>
                <path d="M21.5621,52.2399 C21.6291,52.0769 21.6961,51.9139 21.7641,51.7509 C21.8221,51.7889 21.9191,51.8159 21.9331,51.8669 C21.9941,52.0809 21.9181,52.2329 21.5621,52.2399" id="Fill-16" fill="#262626"></path>
                <path d="M46.2627,30.0083 C46.2977,30.0223 46.3317,30.0363 46.3667,30.0503 C46.7397,29.8143 47.1197,29.5883 47.4857,29.3403 C48.5157,28.6403 49.4487,27.8223 50.3607,26.9753 C51.0347,26.3493 51.5117,25.6063 51.9117,24.7953 C52.0347,24.5443 52.0437,24.2773 51.8657,24.1103 C51.7577,24.0083 51.4757,24.0123 51.3047,24.0693 C50.6127,24.2953 49.9207,24.5323 49.2517,24.8193 C48.5027,25.1403 47.8257,25.6493 47.5117,26.3813 C47.0097,27.5533 46.6707,28.7963 46.2627,30.0083 L46.2627,30.0083 Z M27.0067,19.4253 C27.2077,19.8573 27.6027,20.0273 28.0137,20.1803 C28.2087,20.2523 28.3347,20.8313 28.2107,21.0453 C28.1447,21.1583 28.0907,21.2793 28.0317,21.3963 C28.0677,21.4203 28.1047,21.4443 28.1407,21.4673 C28.3207,21.2553 28.5007,21.0423 28.6817,20.8293 C28.7007,20.8443 28.7207,20.8583 28.7407,20.8723 C28.5777,21.2813 28.4107,21.6883 28.2597,22.1013 C28.2337,22.1713 28.2487,22.3083 28.2967,22.3453 C28.5697,22.5503 28.6017,22.5873 28.5997,22.8703 C29.0117,22.7383 29.3147,22.5243 29.3877,22.0613 C29.3987,21.9863 29.5337,21.9303 29.6597,21.8263 C29.7317,22.6443 29.0277,22.9783 28.8177,23.5803 C28.6167,24.1583 28.1827,24.6553 27.8917,25.2163 C28.4727,25.0673 28.4907,24.4443 28.8547,24.1013 C29.2147,23.7623 29.4447,23.2843 29.7827,22.7923 C29.5507,23.7203 28.8887,24.3073 28.5447,25.1423 C29.4967,24.9023 30.4607,24.6973 31.3937,24.3973 C31.6107,24.3273 31.7667,23.9553 31.8787,23.6913 C32.0407,23.3083 32.2547,23.0183 32.6737,22.9143 C32.7717,22.8903 32.8807,22.8653 32.9537,22.8043 C33.2237,22.5783 33.5297,22.6843 33.7687,22.7843 C34.1027,22.9233 34.3957,22.9373 34.7367,22.8403 C35.1017,22.7373 35.4897,22.7213 35.8587,22.6283 C36.6187,22.4383 37.3687,22.2123 38.1277,22.0183 C39.0727,21.7773 40.0257,21.5693 40.9677,21.3183 C41.5637,21.1593 42.1597,20.9803 42.7307,20.7493 C43.1987,20.5613 43.6687,20.6433 44.1387,20.6123 C44.2247,20.6073 44.3117,20.6123 44.4027,20.6123 C44.6657,21.0353 44.6017,21.1293 44.1987,21.4083 C43.9947,21.5503 43.9007,21.8603 43.7777,22.1043 C43.6927,22.2743 43.6537,22.4373 43.4147,22.4963 C43.2917,22.5273 43.2067,22.7463 43.1247,22.8913 C43.0587,23.0093 43.0237,23.1443 42.9537,23.3283 C42.9767,23.4073 43.0207,23.5563 43.0697,23.7203 C42.4127,23.9623 41.7687,24.2003 41.1117,24.4423 C41.1567,24.5383 41.1877,24.6043 41.1967,24.6223 C39.7397,25.0713 38.3007,25.5473 36.8397,25.9473 C36.1907,26.1253 36.0237,26.6133 35.8907,27.1223 C35.7487,27.6673 35.8967,27.7763 36.4457,27.6173 C36.7467,27.5293 37.0477,27.4283 37.3307,27.2933 C37.9967,26.9753 38.7037,26.8083 39.4267,26.7043 C39.5437,26.6873 39.7547,26.7633 39.7867,26.8483 C39.8297,26.9613 39.7567,27.1313 39.7057,27.2663 C39.6627,27.3803 39.5737,27.4763 39.5157,27.5863 C39.3617,27.8783 39.3147,28.2343 38.9807,28.4193 C38.9127,28.4573 38.8937,28.5823 38.8387,28.6943 C38.9857,28.6723 39.0867,28.6573 39.1427,28.6493 C38.9507,28.8103 38.7397,28.9873 38.5277,29.1653 C38.5857,29.2323 38.6437,29.2993 38.7257,29.3953 C38.5787,29.4913 38.3987,29.5993 38.2307,29.7223 C38.0187,29.8763 37.6907,29.9043 37.6587,30.2653 C37.6537,30.3203 37.4947,30.3573 37.4107,30.4093 C37.0017,30.6633 36.5937,30.9203 36.1777,31.1803 C36.1977,31.1923 36.2487,31.2213 36.2697,31.2333 C36.1657,31.3883 36.0617,31.5513 35.9447,31.7043 C35.9277,31.7273 35.8107,31.7193 35.8007,31.6973 C35.6667,31.4073 35.4687,31.5913 35.2887,31.6173 C34.4477,31.7363 33.9017,32.1583 33.7667,33.0413 C33.7337,33.2543 33.6237,33.4543 33.5167,33.7483 C33.9047,33.6343 34.2087,33.5713 34.4927,33.4573 C35.6087,33.0103 36.7197,32.5493 37.8307,32.0903 C38.4407,31.8383 39.0417,31.5613 39.6587,31.3293 C40.3707,31.0613 41.0967,30.8323 41.8147,30.5793 C41.9007,30.5493 42.0247,30.4963 42.0457,30.4283 C42.2137,29.8823 42.3607,29.3303 42.5227,28.7483 C41.9077,28.5943 41.3447,28.4533 40.7327,28.2993 C40.8177,27.8883 40.8797,27.5293 40.9717,27.1783 C40.9997,27.0713 41.1057,26.9833 41.1847,26.8933 C41.2717,26.7933 41.3937,26.7153 41.4567,26.6033 C41.7387,26.1033 42.1447,25.7793 42.7057,25.6473 C42.7667,25.6333 42.8317,25.5883 42.8727,25.5393 C43.1577,25.1983 43.5237,24.9533 43.6747,24.4643 C43.8177,24.0053 44.1747,23.5973 44.4947,23.2153 C44.6257,23.0603 44.9187,23.0493 45.1247,22.9463 C45.7297,22.6453 46.3387,22.3503 46.9257,22.0183 C48.0397,21.3873 49.2487,21.0733 50.4947,20.8363 C51.3127,20.6813 52.1047,20.6843 52.8977,20.9163 C53.3617,21.0523 53.7687,21.2723 54.1607,21.5803 C54.9167,22.1753 55.4077,22.9413 55.8207,23.7813 C56.1177,24.3843 55.9867,25.0093 55.8427,25.6003 C55.7077,26.1573 55.4317,26.6803 55.2167,27.2183 C55.1867,27.2063 55.1557,27.1953 55.1257,27.1843 C55.1487,27.0963 55.1727,27.0093 55.1957,26.9223 C55.1647,26.9033 55.1327,26.8853 55.1017,26.8673 C54.7997,27.3293 54.5267,27.8143 54.1887,28.2473 C53.8517,28.6793 53.4487,29.0603 53.0487,29.4923 C52.9207,29.2183 52.7747,29.3073 52.6097,29.4783 C52.4447,29.6483 52.2587,29.7993 52.0327,29.9073 C52.5347,29.3503 53.0377,28.7933 53.5397,28.2363 C53.5207,28.2213 53.5017,28.2073 53.4827,28.1933 C52.6267,28.9813 51.8007,29.8063 50.9057,30.5463 C50.0957,31.2173 49.2117,31.7993 48.3557,32.4133 C48.1947,32.5283 47.9967,32.5943 47.8467,32.7203 C47.7907,32.7673 47.7737,32.9623 47.8227,33.0163 C48.2117,33.4493 48.5637,33.9503 49.0377,34.2653 C49.6767,34.6913 50.3177,35.1793 51.1717,35.1683 C51.4987,35.1643 51.8287,35.2993 52.1547,35.3813 C52.2557,35.4073 52.3467,35.4713 52.4447,35.5183 C52.1067,36.1133 51.9827,37.0193 52.2167,37.1773 C52.0877,37.2733 51.9327,37.3453 51.8487,37.4663 C51.7897,37.5503 51.8287,37.7023 51.8227,37.8353 C51.7787,37.8263 51.6547,37.8013 51.5017,37.7693 C51.5737,37.9483 51.6337,38.0953 51.7027,38.2673 C51.4517,38.2193 51.2117,38.1733 50.9717,38.1273 C50.9627,38.1573 50.9547,38.1873 50.9467,38.2163 C51.1287,38.3013 51.3097,38.3853 51.4917,38.4693 C51.4817,38.5003 51.4717,38.5323 51.4627,38.5633 C50.7117,38.3413 49.9597,38.1233 49.2107,37.8933 C48.8477,37.7823 48.4917,37.6473 48.1327,37.5213 C48.0907,37.5073 48.0467,37.4923 48.0117,37.4663 C47.7027,37.2353 47.4067,36.9853 47.0847,36.7743 C46.6757,36.5073 46.2447,36.2753 45.8277,36.0203 C45.6937,35.9383 45.5737,35.8343 45.4527,35.7343 C45.2537,35.5693 45.0587,35.3983 44.8267,35.1993 C44.7417,35.4853 44.6837,35.7463 44.5857,35.9923 C44.4327,36.3773 44.2137,36.7403 44.0917,37.1333 C43.8387,37.9483 43.6387,38.7803 43.3977,39.5993 C43.3457,39.7753 43.2117,39.9263 43.0717,40.1623 C42.9677,39.8483 42.8947,39.7233 42.6447,39.8853 C42.5057,39.9763 42.3507,40.1673 42.1067,40.0093 C42.0617,39.9793 41.8357,40.1633 41.7417,40.2863 C41.6357,40.4253 41.5857,40.6073 41.4887,40.8203 C41.3827,40.7553 41.2847,40.6493 41.1847,40.6463 C41.0547,40.6423 40.8747,40.6793 40.7977,40.7683 C40.4457,41.1783 39.9197,41.0553 39.4937,41.2293 C39.4577,41.2443 39.3937,41.2363 39.3647,41.2123 C39.3257,41.1813 39.2727,41.1063 39.2857,41.0793 C39.4097,40.8303 38.9767,40.7653 39.1347,40.4353 C39.4547,39.7693 39.7037,39.0603 39.9027,38.3473 C40.3617,36.7043 40.7747,35.0473 41.1797,33.4943 C40.5117,33.8743 39.7727,34.2853 39.0437,34.7133 C38.8717,34.8143 38.7507,35.0033 38.5777,35.0983 C38.3987,35.1973 38.1867,35.2693 37.9847,35.2823 C37.7867,35.2953 37.6377,35.3083 37.5597,35.5193 C37.5367,35.5813 37.4597,35.6313 37.3967,35.6713 C36.2547,36.3843 35.0937,37.0693 33.9747,37.8183 C33.4187,38.1903 32.9397,38.6773 32.4267,39.1133 C32.3757,39.1573 32.3377,39.2243 32.2807,39.2523 C31.6977,39.5413 31.4787,40.1023 31.2257,40.6393 C31.2037,40.6843 31.1777,40.7273 31.1377,40.8013 C31.0237,40.5573 30.9417,40.3423 30.8267,40.1453 C30.7437,40.0033 30.6197,39.9393 30.4737,40.1033 C30.2777,40.3253 30.0717,40.5383 29.9377,40.6823 C29.7117,40.5873 29.5267,40.4593 29.3287,40.4353 C28.9197,40.3873 28.5047,40.4013 28.0927,40.3743 C27.8047,40.3553 27.5167,40.3253 27.2317,40.2773 C26.9777,40.2343 26.7727,39.9513 26.8317,39.7393 C27.3257,37.9683 27.8207,36.1983 28.3247,34.4293 C28.4727,33.9083 28.6497,33.3943 28.7937,32.9373 C28.3887,32.8063 28.0027,32.7213 27.6587,32.5503 C27.5307,32.4873 27.4047,32.1933 27.4477,32.0563 C27.5357,31.7713 27.7377,31.5223 27.8917,31.2583 C28.1947,30.7393 28.7767,30.8483 29.2317,30.6813 C29.5327,30.5703 29.7187,30.4413 29.8137,30.1123 C29.9777,29.5413 30.2177,28.9923 30.4037,28.4273 C30.5307,28.0433 30.6207,27.6463 30.7447,27.1933 C30.4667,27.2273 30.2567,27.2433 30.0507,27.2803 C29.3487,27.4083 28.6627,27.3323 27.9787,27.1603 C27.6527,27.0783 27.2497,27.2553 27.0887,27.5623 C26.4047,28.8643 25.6367,30.1213 25.1407,31.5223 C24.8457,32.3553 24.4067,33.1363 24.0637,33.9543 C23.8417,34.4823 23.6797,35.0343 23.4867,35.5733 C23.0827,36.7023 22.6777,37.8303 22.2687,38.9573 C22.2127,39.1133 22.1287,39.2593 22.0187,39.4923 C21.7797,39.2343 21.5837,39.0213 21.3707,38.7903 C21.1287,39.1153 20.8897,39.4373 20.6447,39.7663 C20.4657,39.7663 20.2577,39.7633 20.0487,39.7663 C19.7807,39.7703 19.5097,39.7533 19.2457,39.7893 C18.8847,39.8383 18.5287,39.9273 18.1717,40.0043 C17.9927,40.0423 17.8057,40.0663 17.6417,40.1403 C17.3777,40.2583 17.3057,40.0553 17.2627,39.9053 C17.0777,39.2533 16.8897,38.5983 16.7637,37.9323 C16.6917,37.5463 16.7497,37.1363 16.7267,36.7393 C16.6597,35.6293 16.5787,34.5203 16.5097,33.4103 C16.4597,32.6013 16.5427,31.7593 16.3397,30.9923 C16.1597,30.3113 16.2607,29.5953 15.9607,28.9373 C15.8217,28.6333 15.8547,28.2563 15.7537,27.9293 C15.6037,27.4443 15.4027,26.9753 15.2267,26.4983 C15.1837,26.3833 15.1607,26.2613 15.1197,26.1453 C14.9747,25.7333 14.8257,25.3233 14.6777,24.9123 L14.6777,24.3023 C14.8647,23.9903 15.0527,23.6783 15.2397,23.3663 C15.2797,23.2993 15.3397,23.2323 15.3477,23.1593 C15.3907,22.7983 15.6547,22.7243 15.9417,22.6993 C17.0037,22.6083 18.0377,22.8073 19.0637,23.0333 C19.6337,23.1593 20.0197,23.5513 20.1817,24.1023 C20.3477,24.6713 20.4557,25.2593 20.5697,25.8423 C20.6727,26.3693 20.7377,26.9033 20.8437,27.4293 C20.9117,27.7693 21.0227,28.1013 21.1197,28.4573 C21.3537,28.2973 21.5367,28.1883 21.7007,28.0553 C21.9137,27.8823 22.1677,27.7253 22.3067,27.5013 C23.2647,25.9603 24.1877,24.3973 25.1457,22.8563 C25.4237,22.4093 25.6297,21.9633 25.6197,21.4283 C25.6167,21.2853 25.6317,21.1223 25.6997,21.0023 C26.0147,20.4413 26.2767,19.8393 26.8037,19.4253 L27.0067,19.4253 Z" id="Fill-18" fill="#262626"></path>
                <path d="M68.2499,23.5422 C68.3759,23.4362 68.4389,23.3822 68.5649,23.2762 C68.6739,23.8262 68.3699,24.2792 68.3269,24.8462 C68.5879,24.6902 68.7839,24.5732 69.0399,24.4192 C68.8989,24.6692 68.8129,24.8872 68.6699,25.0582 C68.4719,25.2952 68.5019,25.4012 68.8069,25.4352 C68.8459,25.4392 68.8819,25.4682 68.9269,25.4892 C68.1469,26.4902 67.3599,27.4732 66.6029,28.4802 C66.0719,29.1872 65.5859,29.9292 65.0719,30.6492 C64.9849,30.7712 64.8709,30.8982 64.7399,30.9602 C64.3079,31.1672 64.2099,31.5762 64.0829,31.9692 C63.9609,32.3422 63.8659,32.7232 63.7379,33.0932 C63.4299,33.9822 63.0769,34.8582 62.8029,35.7582 C62.5109,36.7202 62.2959,37.7052 62.0319,38.6772 C61.9769,38.8782 61.8579,39.0622 61.7689,39.2542 C61.6979,39.1902 61.6589,39.1542 61.6019,39.1032 C61.5569,39.2562 61.5179,39.3872 61.4789,39.5182 C61.4649,39.5192 61.4509,39.5192 61.4369,39.5192 C61.4309,39.4742 61.4319,39.4272 61.4199,39.3832 C61.3889,39.2732 61.3529,39.1642 61.3189,39.0552 C61.2169,39.1202 61.1159,39.1832 61.0159,39.2492 C60.6289,39.5052 60.3909,39.9062 60.0649,40.2152 C59.8099,40.4562 59.4549,40.5922 59.1399,40.7662 C59.0239,40.8312 58.8959,40.8802 58.7689,40.9212 C58.6559,40.9562 58.5369,40.9702 58.4109,40.9382 C58.0809,41.1532 57.7529,41.3722 57.4179,41.5802 C57.2409,41.6892 57.0129,41.5762 57.0309,41.3722 C57.0609,41.0042 57.1109,40.6362 57.1889,40.2762 C57.4989,38.8492 57.8089,37.4212 58.1449,35.9992 C58.3969,34.9332 58.6899,33.8772 58.9609,32.8152 C59.0159,32.6022 59.0549,32.3852 59.1099,32.1322 C58.3729,31.3732 58.2119,30.3602 58.0739,29.3242 C58.0139,28.8692 57.8449,28.4262 57.7069,27.9832 C57.5599,27.5142 57.3679,27.0592 57.2369,26.5862 C56.9979,25.7312 56.7769,24.8702 56.5809,24.0042 C56.5409,23.8292 56.6359,23.6192 56.6829,23.4292 C56.8599,22.7132 57.2149,22.1362 57.9629,21.9072 C58.0869,21.8692 58.2639,21.8822 58.3759,21.9452 C59.0479,22.3242 59.7519,22.6682 60.3599,23.1352 C60.9129,23.5602 61.2739,24.1432 61.2839,24.9212 C61.2899,25.4062 61.4869,25.8882 61.5909,26.3732 C61.6479,26.6372 61.6949,26.9032 61.7409,27.1692 C61.7869,27.4352 61.8629,27.4672 62.1209,27.3182 C62.9249,26.8522 63.3369,26.0352 63.9329,25.3842 C64.3559,24.9222 64.7309,24.4152 65.1259,23.9282 C65.1689,23.8752 65.2269,23.8262 65.2449,23.7652 C65.4209,23.1552 65.9199,22.7682 66.2849,22.2932 C66.5329,21.9702 66.8749,21.8752 67.1929,22.2152 C67.3469,22.3792 67.5899,22.4562 67.7859,22.5832 C68.1029,22.7902 68.3029,23.0702 68.2499,23.5422" id="Fill-20" fill="#262626"></path>
                <path d="M45.6676,38.6622 C45.9236,38.6222 45.9736,38.7942 45.9726,39.0072 C45.9716,39.2572 45.7006,39.5382 45.4596,39.5372 C45.2436,39.5362 45.1406,39.4302 45.1496,39.2012 C45.1626,38.8712 45.3446,38.6632 45.6676,38.6622" id="Fill-22" fill="#262626"></path>
                <path d="M18.2231,40.8379 C18.1951,40.7999 18.0651,40.6749 18.0851,40.6439 C18.1961,40.4649 18.3441,40.3079 18.4791,40.1439 C18.5721,40.2379 18.7201,40.3179 18.7481,40.4279 C18.7991,40.6339 18.5611,40.8349 18.2231,40.8379" id="Fill-24" fill="#262626"></path>
                <path d="M46.0516,38.3951 C46.0196,38.0581 46.1446,37.9341 46.3496,37.9401 C46.4306,37.9421 46.5766,38.0791 46.5746,38.1501 C46.5676,38.3671 46.4466,38.5451 46.2036,38.5371 C46.1296,38.5341 46.0606,38.4041 46.0516,38.3951" id="Fill-26" fill="#262626"></path>
                <path d="M44.6853,40.3691 C44.8493,40.1921 44.9803,40.0511 45.1613,39.8541 C45.2493,40.3471 45.1423,40.4541 44.6853,40.3691" id="Fill-28" fill="#262626"></path>
                <path d="M25.8341,31.8441 C25.8181,31.9691 25.8171,32.0991 25.7771,32.2161 C25.7661,32.2451 25.6311,32.2321 25.5531,32.2381 C25.5811,32.0961 25.6081,31.9541 25.6351,31.8121 C25.7011,31.8231 25.7681,31.8331 25.8341,31.8441" id="Fill-30" fill="#262626"></path>
                <path d="M33.6954,69.1813 C33.7084,69.3173 33.7214,69.4523 33.7344,69.5883 C35.1664,69.4263 36.5984,69.2643 38.0314,69.1013 C38.0264,69.0563 38.0224,69.0113 38.0184,68.9663 C36.5774,69.0383 35.1364,69.1093 33.6954,69.1813 L33.6954,69.1813 Z M47.6444,68.3123 C48.2294,68.7483 52.4584,68.8963 53.3664,68.3123 L47.6444,68.3123 Z M53.5304,66.6883 C53.5284,66.6573 53.5254,66.6253 53.5234,66.5933 C52.4404,66.5933 51.3574,66.5923 50.2754,66.5953 C50.2174,66.5953 50.1174,66.6193 50.1074,66.6533 C49.8894,67.3823 49.2914,67.1113 48.8144,67.1473 C47.6254,67.2373 46.4354,67.3203 45.2454,67.4063 C46.1654,67.6273 47.0954,67.7583 48.0294,67.8343 C48.4114,67.8653 48.8064,67.7283 49.1894,67.7543 C50.2434,67.8263 51.2934,67.9603 52.3474,68.0263 C52.5214,68.0363 52.7084,67.8223 52.8884,67.7123 C52.6894,67.6273 52.4914,67.4763 52.2904,67.4733 C51.9074,67.4663 51.5234,67.5433 51.1384,67.5863 C51.1244,67.4923 51.1104,67.3993 51.0964,67.3063 C51.9074,67.1003 52.7194,66.8943 53.5304,66.6883 L53.5304,66.6883 Z M43.9954,66.8413 C41.8524,66.9593 39.7084,67.0773 37.5654,67.1943 C37.5684,67.3263 37.5704,67.4583 37.5734,67.5913 C38.4924,67.6463 39.4114,67.7023 40.3304,67.7583 C40.3294,67.7873 40.3284,67.8153 40.3274,67.8443 C39.8054,67.9583 39.2834,68.0733 38.7614,68.1873 C38.7704,68.2823 38.7804,68.3773 38.7894,68.4723 C39.5734,68.4233 40.4124,68.5353 41.1274,68.2873 C42.1374,67.9363 43.0544,67.3193 44.0114,66.8153 C43.9824,67.0963 43.9544,67.3763 43.8974,67.9393 C44.3394,67.6093 44.5444,67.4293 44.7744,67.2893 C45.4984,66.8483 46.1854,66.2273 46.9744,66.0393 C48.0134,65.7923 49.1344,65.8933 50.2194,65.8403 C50.8224,65.8113 51.4244,65.7753 52.0264,65.7423 C52.0234,65.6533 52.0214,65.5633 52.0184,65.4733 L43.5894,65.4733 C43.9434,66.4823 44.8824,65.7233 45.3864,66.2343 C44.8984,66.4463 44.4504,66.6403 43.9954,66.8413 L43.9954,66.8413 Z M15.9764,65.6543 C16.7824,65.0113 17.5544,64.3143 18.4094,63.7443 C18.8954,63.4203 19.5154,63.2933 20.0834,63.1013 C20.1644,63.0733 20.3734,63.1593 20.3824,63.2163 C20.5494,64.2433 21.4264,64.1493 22.0674,64.1443 C24.3404,64.1243 26.6124,63.9613 28.8854,63.9133 C30.9764,63.8693 33.0684,63.9043 35.1844,64.1043 C34.7774,64.1453 34.3704,64.1873 33.9634,64.2283 C33.9634,64.3063 33.9624,64.3843 33.9624,64.4623 C36.3474,64.5513 38.7314,64.6743 41.1174,64.7193 C44.1294,64.7753 47.1434,64.7333 50.1544,64.8003 C52.2374,64.8473 54.3164,65.0553 56.3984,65.0883 C57.1574,65.1003 58.0114,65.2693 58.6114,64.3483 C58.8174,64.0323 59.7004,64.1013 60.2744,64.0953 C61.2874,64.0833 62.3024,64.1143 63.3114,64.1933 C64.0054,64.2483 64.6914,64.4153 65.4414,64.5423 C65.4724,64.2283 65.5034,63.9133 65.5204,63.7363 C66.0954,63.6673 66.6104,63.6053 67.2604,63.5273 C66.9844,64.3083 68.0294,65.0553 67.2854,65.9533 C67.2054,66.0493 67.3934,66.3733 67.4684,66.5873 C67.5354,66.7763 67.6184,66.9593 67.7424,67.2613 C66.8344,66.9883 66.4334,67.3203 65.9684,68.5353 C66.1954,68.6343 66.4244,68.7333 66.8934,68.9373 C66.2994,68.9793 65.9764,69.0023 65.4244,69.0423 C65.5324,69.4573 65.6304,69.8293 65.7564,70.3073 L64.3474,70.3073 C64.3194,70.3813 64.2914,70.4543 64.2634,70.5273 C64.5454,70.7393 64.8274,70.9523 65.1094,71.1643 C62.9644,71.3153 60.8434,71.2963 58.7504,70.5403 C58.7274,70.3673 58.6914,70.1013 58.6524,69.8173 C58.1374,69.7203 57.6404,69.6103 57.1384,69.5363 C56.0314,69.3723 54.9254,69.1813 53.8114,69.0943 C53.2684,69.0523 52.7074,69.2883 52.1574,69.2763 C51.1504,69.2543 50.1464,69.1293 49.1394,69.0703 C48.3274,69.0233 47.5124,68.9773 46.7004,68.9923 C45.7144,69.0103 44.7314,69.1263 43.7454,69.1423 C42.4214,69.1633 41.0944,69.1573 39.7714,69.1083 C39.1784,69.0863 38.6974,69.0533 38.4674,69.7773 C38.4154,69.9423 37.8844,70.0463 37.5834,70.0273 C33.9434,69.7903 30.3544,70.3113 26.7574,70.7303 C25.1724,70.9153 23.5904,71.2203 22.0014,71.2613 C20.8474,71.2913 19.7934,70.9453 18.7924,70.0843 C18.1314,69.5153 17.5024,68.9633 17.0364,68.2533 C16.6174,67.6143 16.3244,66.8933 15.9764,66.2093 L15.9764,65.6543 Z" id="Fill-32" fill="#262626"></path>
                <path d="M39.2711,62.8812 C39.4841,63.7972 39.1981,64.1252 38.2391,63.8982 C38.4741,63.5362 38.6881,63.2092 38.9011,62.8812 L39.2711,62.8812 Z" id="Fill-34" fill="#262626"></path>
                <path d="M41.3467,69.6549 L45.0187,69.6549 L45.0187,69.9239 L41.3827,69.9239 C41.3707,69.8339 41.3587,69.7449 41.3467,69.6549" id="Fill-36" fill="#262626"></path>
                <path d="M30.9036,73.9908 C31.4126,73.4908 31.7866,73.1228 32.2846,72.6338 C32.3966,73.8118 32.0636,74.1548 30.9036,73.9908" id="Fill-38" fill="#262626"></path>
                <path d="M40.8524,69.3302 C40.7704,69.5872 40.7074,69.7832 40.6244,70.0412 C40.1154,69.9912 39.5404,69.9342 38.9654,69.8782 C38.9644,69.8202 38.9644,69.7622 38.9634,69.7042 C39.5784,69.5822 40.1934,69.4612 40.8524,69.3302" id="Fill-40" fill="#262626"></path>
            </g>
        </g>
    </g>
</svg>